<svg width="40" height="40" viewBox="0 0 40 40" fill="none" xmlns="http://www.w3.org/2000/svg">
<g filter="url(#filter0_d_109_527)">
<path d="M28.544 5.536C28.1643 5.536 27.793 5.64861 27.4773 5.85958C27.1616 6.07055 26.9155 6.37041 26.7702 6.72125C26.6248 7.07208 26.5868 7.45813 26.6609 7.83057C26.735 8.20302 26.9178 8.54513 27.1864 8.81365C27.4549 9.08216 27.797 9.26502 28.1694 9.33911C28.5419 9.41319 28.9279 9.37517 29.2788 9.22985C29.6296 9.08453 29.9294 8.83844 30.1404 8.5227C30.3514 8.20695 30.464 7.83574 30.464 7.456C30.464 6.94678 30.2617 6.45843 29.9016 6.09836C29.5416 5.73829 29.0532 5.536 28.544 5.536ZM35.904 9.408C35.8729 8.08048 35.6243 6.76704 35.168 5.52C34.7612 4.45301 34.128 3.48685 33.312 2.688C32.5197 1.86788 31.5513 1.23868 30.48 0.848C29.2362 0.377857 27.9214 0.123536 26.592 0.0959999C24.896 -8.9407e-08 24.352 0 20 0C15.648 0 15.104 -8.9407e-08 13.408 0.0959999C12.0786 0.123536 10.7637 0.377857 9.52 0.848C8.45068 1.24264 7.48309 1.8713 6.688 2.688C5.86788 3.48028 5.23868 4.4487 4.848 5.52C4.37786 6.76375 4.12354 8.07864 4.096 9.408C4 11.104 4 11.648 4 16C4 20.352 4 20.896 4.096 22.592C4.12354 23.9214 4.37786 25.2362 4.848 26.48C5.23868 27.5513 5.86788 28.5197 6.688 29.312C7.48309 30.1287 8.45068 30.7574 9.52 31.152C10.7637 31.6221 12.0786 31.8765 13.408 31.904C15.104 32 15.648 32 20 32C24.352 32 24.896 32 26.592 31.904C27.9214 31.8765 29.2362 31.6221 30.48 31.152C31.5513 30.7613 32.5197 30.1321 33.312 29.312C34.1316 28.5161 34.7653 27.5491 35.168 26.48C35.6243 25.233 35.8729 23.9195 35.904 22.592C35.904 20.896 36 20.352 36 16C36 11.648 36 11.104 35.904 9.408ZM33.024 22.4C33.0124 23.4156 32.8284 24.4219 32.48 25.376C32.2245 26.0723 31.8142 26.7015 31.28 27.216C30.761 27.7448 30.1332 28.1543 29.44 28.416C28.4859 28.7644 27.4796 28.9484 26.464 28.96C24.864 29.04 24.272 29.056 20.064 29.056C15.856 29.056 15.264 29.056 13.664 28.96C12.6094 28.9797 11.5594 28.8174 10.56 28.48C9.89725 28.2049 9.29817 27.7965 8.8 27.28C8.26894 26.766 7.86375 26.1363 7.616 25.44C7.22537 24.4722 7.00871 23.4431 6.976 22.4C6.976 20.8 6.88 20.208 6.88 16C6.88 11.792 6.88 11.2 6.976 9.6C6.98317 8.56169 7.17272 7.53271 7.536 6.56C7.81768 5.88466 8.25002 5.28265 8.8 4.8C9.2861 4.24987 9.88686 3.81295 10.56 3.52C11.5353 3.16807 12.5632 2.98413 13.6 2.976C15.2 2.976 15.792 2.88 20 2.88C24.208 2.88 24.8 2.88 26.4 2.976C27.4156 2.98765 28.4219 3.17159 29.376 3.52C30.1031 3.78984 30.7557 4.22855 31.28 4.8C31.8043 5.29149 32.214 5.89237 32.48 6.56C32.8356 7.53429 33.0197 8.56285 33.024 9.6C33.104 11.2 33.12 11.792 33.12 16C33.12 20.208 33.104 20.8 33.024 22.4ZM20 7.792C18.3773 7.79516 16.7919 8.27924 15.4442 9.18307C14.0966 10.0869 13.047 11.3699 12.4282 12.87C11.8094 14.3701 11.6492 16.0199 11.9677 17.6111C12.2862 19.2022 13.0692 20.6633 14.2177 21.8096C15.3663 22.9559 16.8288 23.736 18.4206 24.0514C20.0123 24.3668 21.6619 24.2034 23.1607 23.5817C24.6596 22.9599 25.9406 21.9079 26.8418 20.5585C27.743 19.209 28.224 17.6227 28.224 16C28.2261 14.9202 28.0147 13.8506 27.602 12.8527C27.1892 11.8549 26.5833 10.9485 25.819 10.1857C25.0547 9.42287 24.1471 8.81868 23.1485 8.40789C22.1498 7.99709 21.0798 7.78778 20 7.792ZM20 21.328C18.9462 21.328 17.9161 21.0155 17.0399 20.4301C16.1637 19.8446 15.4808 19.0125 15.0776 18.0389C14.6743 17.0654 14.5688 15.9941 14.7744 14.9606C14.98 13.927 15.4874 12.9777 16.2325 12.2325C16.9777 11.4874 17.927 10.98 18.9606 10.7744C19.9941 10.5688 21.0654 10.6743 22.0389 11.0776C23.0125 11.4808 23.8446 12.1637 24.4301 13.0399C25.0155 13.9161 25.328 14.9462 25.328 16C25.328 16.6997 25.1902 17.3925 24.9224 18.0389C24.6547 18.6854 24.2622 19.2727 23.7675 19.7675C23.2727 20.2622 22.6854 20.6547 22.0389 20.9224C21.3925 21.1902 20.6997 21.328 20 21.328Z" fill="white" fill-opacity="0.5" shape-rendering="crispEdges"/>
</g>
<defs>
<filter id="filter0_d_109_527" x="0" y="0" width="40" height="40" filterUnits="userSpaceOnUse" color-interpolation-filters="sRGB">
<feFlood flood-opacity="0" result="BackgroundImageFix"/>
<feColorMatrix in="SourceAlpha" type="matrix" values="0 0 0 0 0 0 0 0 0 0 0 0 0 0 0 0 0 0 127 0" result="hardAlpha"/>
<feOffset dy="4"/>
<feGaussianBlur stdDeviation="2"/>
<feComposite in2="hardAlpha" operator="out"/>
<feColorMatrix type="matrix" values="0 0 0 0 0 0 0 0 0 0 0 0 0 0 0 0 0 0 0.25 0"/>
<feBlend mode="normal" in2="BackgroundImageFix" result="effect1_dropShadow_109_527"/>
<feBlend mode="normal" in="SourceGraphic" in2="effect1_dropShadow_109_527" result="shape"/>
</filter>
</defs>
</svg>
